<svg t="1766751441502" class="icon" viewBox="0 0 1024 1024" version="1.1" xmlns="http://www.w3.org/2000/svg" p-id="12011" width="48" height="48"><path d="M229.74522 0a165.792898 165.792898 0 0 0-165.792898 165.792898v686.565682a165.792898 165.792898 0 0 0 165.792898 164.775763h516.95853a165.792898 165.792898 0 0 0 165.792898-165.792898V341.248572a63.062329 63.062329 0 0 0-19.071269-44.753911L616.001987 18.562702a63.062329 63.062329 0 0 0-44.753912-18.562702z" fill="#FC4A49" p-id="12012"></path><path d="M893.425379 296.494661L616.001987 18.562702a62.553762 62.553762 0 0 0-32.294016-17.037 6.35709 6.35709 0 0 0-7.374224 6.357089v134.516017A194.018376 194.018376 0 0 0 770.09784 337.434318h134.516016a6.35709 6.35709 0 0 0 6.35709-7.374224 62.553762 62.553762 0 0 0-17.545567-33.565433z" fill="#F91716" p-id="12013"></path><path d="M777.21778 304.886019h123.836106a104.001987 104.001987 0 0 0-7.11994-8.391358L616.001987 18.562702a66.368016 66.368016 0 0 0-8.391359-6.865657v123.581823a169.352868 169.352868 0 0 0 169.607152 169.607151z" fill="#FFC3C3" p-id="12014"></path><path d="M216.776757 455.167619H283.144773c53.653837 0 80.353613 19.325553 80.353613 58.485224a53.90812 53.90812 0 0 1-23.139806 46.78818 95.610628 95.610628 0 0 1-56.196673 14.748448H257.716414V642.574621H216.776757zM283.144773 545.692575q41.956792 0 41.956791-32.039732a25.428359 25.428359 0 0 0-11.188477-22.885522 64.842314 64.842314 0 0 0-32.039732-6.102806H257.716414v61.02806zM401.640924 455.167619h41.956791l59.502359 99.170598 20.596971 40.43109h1.271418v-15.511299c0-6.102806-1.271418-11.697045-1.779985-16.528433-1.271418-12.968463-1.779985-24.156941-1.779985-33.311149v-74.250807h38.651105V642.574621H517.085672l-59.502359-101.713434-20.596971-40.176807H435.714924v15.511299l1.525702 16.528433c1.271418 12.968463 1.779985 23.902657 1.779985 33.056866V642.574621h-37.379687zM627.444748 620.451949a92.559225 92.559225 0 0 1-28.479762-71.453687 93.067792 93.067792 0 0 1 28.988329-71.707971 96.373479 96.373479 0 0 1 69.673703-25.428359 89.253539 89.253539 0 0 1 63.316612 23.902657l-21.868388 23.648374a58.739508 58.739508 0 0 0-40.176806-15.511299 54.670971 54.670971 0 0 0-41.956792 17.037 66.876583 66.876583 0 0 0-16.019866 47.042463 68.402285 68.402285 0 0 0 15.257015 47.805315 58.739508 58.739508 0 0 0 45.516762 17.291283 40.176807 40.176807 0 0 0 25.428359-7.11994v-36.87112H689.99851v-30.51403h72.979389v84.167867a95.864912 95.864912 0 0 1-66.368016 22.376955 98.153464 98.153464 0 0 1-69.165135-24.665508z" fill="#F5F6FA" p-id="12015"></path></svg>